<?xml version="1.0" encoding="UTF-8" standalone="no" ?>
<!DOCTYPE svg PUBLIC "-//W3C//DTD SVG 1.1//EN" "http://www.w3.org/Graphics/SVG/1.1/DTD/svg11.dtd">
<svg xmlns="http://www.w3.org/2000/svg" xmlns:xlink="http://www.w3.org/1999/xlink" version="1.1" width="1280" height="1024" viewBox="0 0 1280 1024" xml:space="preserve">
<desc>Created with Fabric.js 4.4.0</desc>
<defs>
</defs>
<g transform="matrix(1 0 0 1 640 512)" id="background-logo"  >
<rect style="stroke: none; stroke-width: 0; stroke-dasharray: none; stroke-linecap: butt; stroke-dashoffset: 0; stroke-linejoin: miter; stroke-miterlimit: 4; fill: rgb(255,255,255); fill-opacity: 0; fill-rule: nonzero; opacity: 1;"  paint-order="stroke"  x="-640" y="-512" rx="0" ry="0" width="1280" height="1024" />
</g>
<g transform="matrix(1.9211538461538462 0 0 1.9211538461538462 653.9896401534367 826.2101854160217)" id="text-logo-path-group"  >
<g style=""  paint-order="stroke"   >
		<g transform="matrix(1 0 0 1 0 0)" id="text-logo-path-0"  >
<path style="stroke: none; stroke-width: 0; stroke-dasharray: none; stroke-linecap: butt; stroke-dashoffset: 0; stroke-linejoin: miter; stroke-miterlimit: 4; fill: rgb(237,40,41); fill-rule: nonzero; opacity: 1;"  paint-order="stroke"  transform=" translate(-105.48, 27.2)" d="M 1.6 0 L 6.48 0 C 12.16 0 15.76 -4.4 15.76 -9.44 L 15.76 -45.2 C 15.76 -47.28 17.2 -49.04 19.52 -49.04 L 24.32 -49.04 L 24.32 -54.4 L 19.44 -54.4 C 13.76 -54.4 10.16 -50 10.16 -44.96 L 10.16 -9.2 C 10.16 -7.12 8.72 -5.36 6.4 -5.36 L 1.6 -5.36 Z M 29.28 -9.12 C 29.28 -3.92 32.88 0.4 38.56 0.4 L 39.2 0.4 C 44.88 0.4 48.48 -3.92 48.48 -9.12 L 48.48 -45.36 C 48.48 -50.4 44.88 -54.8 39.2 -54.8 L 38.56 -54.8 C 32.88 -54.8 29.28 -50.4 29.28 -45.36 Z M 34.88 -8.8 L 34.88 -45.68 C 34.88 -47.76 36.32 -49.52 38.64 -49.52 L 39.12 -49.52 C 41.44 -49.52 42.88 -47.76 42.88 -45.68 L 42.88 -8.8 C 42.88 -6.72 41.44 -4.88 39.12 -4.88 L 38.64 -4.88 C 36.32 -4.88 34.88 -6.72 34.88 -8.8 Z M 55.36 0 L 60.96 0 L 60.96 -45.6 C 60.96 -47.68 62.4 -49.44 64.72 -49.44 L 65.2 -49.44 C 67.52 -49.44 68.96 -47.68 68.96 -45.6 L 68.96 0 L 74.56 0 L 74.56 -45.36 C 74.56 -50.4 70.96 -54.8 65.28 -54.8 L 64.64 -54.8 C 58.96 -54.8 55.36 -50.4 55.36 -45.36 Z M 81.76 -47.2 L 87.36 -47.2 L 87.36 -54.4 L 81.76 -54.4 Z M 81.76 0 L 87.36 0 L 87.36 -44.8 L 81.76 -44.8 Z M 113.6 -10.4 L 108 -10.4 L 108 -8.8 C 108 -6.72 106.56 -4.88 104.24 -4.88 L 103.76 -4.88 C 101.44 -4.88 100 -6.72 100 -8.8 L 100 -45.6 C 100 -47.68 101.44 -49.44 103.76 -49.44 L 104.24 -49.44 C 106.56 -49.44 108 -47.68 108 -45.6 L 108 -44 L 113.6 -44 L 113.6 -45.36 C 113.6 -50.4 110 -54.8 104.32 -54.8 L 103.68 -54.8 C 98 -54.8 94.4 -50.4 94.4 -45.36 L 94.4 -9.12 C 94.4 -3.92 98 0.4 103.68 0.4 L 104.32 0.4 C 110 0.4 113.6 -3.92 113.6 -9.12 Z M 129.84 -9.12 C 129.84 -3.92 133.44 0.4 139.12 0.4 L 139.76 0.4 C 145.44 0.4 149.04 -3.92 149.04 -9.12 L 149.04 -45.36 C 149.04 -50.4 145.44 -54.8 139.76 -54.8 L 139.12 -54.8 C 133.44 -54.8 129.84 -50.4 129.84 -45.36 Z M 135.44 -8.8 L 135.44 -45.68 C 135.44 -47.76 136.88 -49.52 139.2 -49.52 L 139.68 -49.52 C 142 -49.52 143.44 -47.76 143.44 -45.68 L 143.44 -8.8 C 143.44 -6.72 142 -4.88 139.68 -4.88 L 139.2 -4.88 C 136.88 -4.88 135.44 -6.72 135.44 -8.8 Z M 155.92 -54.4 L 155.92 -7.84 C 155.92 -2.8 159.04 0.4 164.08 0.4 C 166.24 0.4 168.48 -0.48 169.44 -1.92 C 170.4 -0.4 172.64 0.4 174.8 0.4 C 179.84 0.4 182.96 -2.8 182.96 -7.84 L 182.96 -54.4 L 177.36 -54.4 L 177.36 -8.4 C 177.36 -6.32 176.72 -4.96 174.8 -4.96 C 172.88 -4.96 172.24 -6.32 172.24 -8.4 L 172.24 -54.4 L 166.64 -54.4 L 166.64 -8.4 C 166.64 -6.32 166 -4.96 164.08 -4.96 C 162.16 -4.96 161.52 -6.32 161.52 -8.4 L 161.52 -54.4 Z M 190.16 0 L 209.36 0 L 209.36 -5.28 L 195.76 -5.28 L 195.76 -54.4 L 190.16 -54.4 Z" stroke-linecap="round" />
</g>
</g>
</g>
<g transform="matrix(1.827390870313467 0 0 1.827390870313467 666.7475583864207 455.37944851260164)" id="logo-logo"  >
<g style=""  paint-order="stroke"   >
		<g transform="matrix(3.6161463431219456 0 0 -3.616146343121945 59.79614391157156 8.526513e-14)"  >
<linearGradient id="SVGID_34_3_3_473684" gradientUnits="userSpaceOnUse" gradientTransform="matrix(-57.442535 0.000005 0.000005 57.442535 208.4707 159.08105)"  x1="0" y1="0" x2="1" y2="0">
<stop offset="0%" style="stop-color:rgb(251,176,64);stop-opacity: 1"/>
<stop offset="78.95609999999999%" style="stop-color:rgb(236,32,39);stop-opacity: 1"/>
<stop offset="98.9457%" style="stop-color:rgb(190,32,46);stop-opacity: 1"/>
<stop offset="100%" style="stop-color:rgb(190,32,46);stop-opacity: 1"/>
</linearGradient>
<path style="stroke: none; stroke-width: 1; stroke-dasharray: none; stroke-linecap: butt; stroke-dashoffset: 0; stroke-linejoin: miter; stroke-miterlimit: 4; fill: url(#SVGID_34_3_3_473684); fill-rule: nonzero; opacity: 1;"  paint-order="stroke"  transform=" translate(-178.51575, -159.081)" d="M 154.822 164.556 L 161.98 137.264 C 163.63199999999998 139.46 165.32899999999998 141.67000000000002 166.982 143.866 L 166.982 143.866 C 168.808 142.709 171.373 142.781 173.413 144.23100000000002 L 173.413 144.23100000000002 C 175.684 145.84600000000003 176.56 148.62900000000002 175.656 150.87800000000001 L 175.656 150.87800000000001 C 177.952 152.204 180.247 153.52900000000002 182.542 154.85500000000002 L 182.542 154.85500000000002 C 184.757 150.17700000000002 183.017 144.15900000000002 178.191 140.733 L 178.191 140.733 C 175.779 139.019 173.014 138.246 170.385 138.354 L 170.385 138.354 L 180.033 122.73300000000002 L 190.952 122.73300000000002 C 194.97299999999998 122.73300000000002 198.69 124.87700000000002 200.702 128.36 L 200.702 128.36 C 202.712 131.84500000000003 202.712 136.133 200.702 139.616 L 200.702 139.616 L 193.018 152.92000000000002 L 193.039 152.92600000000002 L 193.03699999999998 152.92800000000003 C 196.635 154.76400000000004 201.63699999999997 159.41600000000003 201.26399999999998 166.11700000000002 L 201.26399999999998 166.11700000000002 C 198.314 163.44500000000002 193.75699999999998 161.543 188.206 161.293 L 188.206 161.293 C 188.20499999999998 161.293 188.20499999999998 161.296 188.20499999999998 161.296 L 188.20499999999998 161.296 L 188.18699999999998 161.28799999999998 L 171.725 189.801 C 169.715 193.284 166.00199999999998 195.42899999999997 161.98 195.42899999999997 L 161.98 195.42899999999997 z" stroke-linecap="round" />
</g>
		<g transform="matrix(3.6161463431219456 0 0 -3.616146343121945 -72.7378796553121 -8.526513e-14)"  >
<linearGradient id="SVGID_35_4_4_473685" gradientUnits="userSpaceOnUse" gradientTransform="matrix(-54.542599 0.0000048 0.0000048 54.542599 171.59473 159.08105)"  x1="0" y1="0" x2="1" y2="0">
<stop offset="0%" style="stop-color:rgb(251,176,64);stop-opacity: 1"/>
<stop offset="78.95609999999999%" style="stop-color:rgb(236,32,39);stop-opacity: 1"/>
<stop offset="98.9457%" style="stop-color:rgb(190,32,46);stop-opacity: 1"/>
<stop offset="100%" style="stop-color:rgb(190,32,46);stop-opacity: 1"/>
</linearGradient>
<path style="stroke: none; stroke-width: 1; stroke-dasharray: none; stroke-linecap: butt; stroke-dashoffset: 0; stroke-linejoin: miter; stroke-miterlimit: 4; fill: url(#SVGID_35_4_4_473685); fill-rule: nonzero; opacity: 1;"  paint-order="stroke"  transform=" translate(-141.86512500000003, -159.08100000000002)" d="M 152.232 189.801 L 135.768 161.285 L 135.747 161.293 C 130.198 161.543 125.64300000000001 163.445 122.69400000000002 166.11700000000002 L 122.69400000000002 166.11700000000002 C 122.32200000000002 159.431 127.30100000000002 154.78600000000003 130.89700000000002 152.94100000000003 L 130.89700000000002 152.94100000000003 L 130.94000000000003 152.92300000000003 L 123.25700000000003 139.61600000000004 C 121.24800000000003 136.13300000000004 121.24800000000003 131.84500000000006 123.25700000000003 128.36000000000004 L 123.25700000000003 128.36000000000004 C 125.26800000000003 124.87700000000004 128.98100000000002 122.73300000000005 133.00400000000002 122.73300000000005 L 133.00400000000002 122.73300000000005 L 143.92200000000003 122.73300000000005 L 153.57200000000003 138.35400000000004 C 150.94400000000002 138.24600000000004 148.17600000000004 139.01900000000003 145.76800000000003 140.73300000000003 L 145.76800000000003 140.73300000000003 C 140.94200000000004 144.15900000000002 139.20200000000003 150.17700000000002 141.41300000000004 154.85500000000002 L 141.41300000000004 154.85500000000002 C 143.70800000000003 153.52900000000002 146.00700000000003 152.204 148.30400000000003 150.87800000000001 L 148.30400000000003 150.87800000000001 C 147.39800000000002 148.62900000000002 148.27500000000003 145.846 150.54200000000003 144.23100000000002 L 150.54200000000003 144.23100000000002 C 152.58600000000004 142.78100000000003 155.15100000000004 142.70900000000003 156.97500000000002 143.866 L 156.97500000000002 143.866 C 158.63000000000002 141.67000000000002 160.32700000000003 139.46 161.98000000000002 137.264 L 161.98000000000002 137.264 L 161.98000000000002 195.429 C 157.95800000000003 195.429 154.241 193.284 152.23200000000003 189.801" stroke-linecap="round" />
</g>
</g>
</g>
<g transform="matrix(6.556381276170319 0 0 6.556381276170319 666.7475583864207 435.00420777347614)" id="shape-c087c284-c184-4d5d-a42f-112b83e9dcb4"  >
<g style=""  paint-order="stroke"   >
		<g transform="matrix(1 0 0 1 26.444637424328647 -23.506608120977273)" id="_x31__00000125578401954223378190000001429931000784502164_"  >
<path style="stroke: none; stroke-width: 1; stroke-dasharray: none; stroke-linecap: butt; stroke-dashoffset: 0; stroke-linejoin: miter; stroke-miterlimit: 4; fill: rgb(127,15,14); fill-rule: nonzero; opacity: 1;"  paint-order="stroke"  transform=" translate(-76.44463663269963, -26.493391879022727)" d="M 80.20918 26.76385 C 80.0741 26.19149 79.38423 25.8643 78.6683 26.03301 C 78.36907000000001 26.10352 78.11693 26.25194 77.92967 26.43971 C 77.92967 26.43971 76.76896 21.30777 76.7689 21.3076 C 76.74327 21.240750000000002 76.72283 21.15961 76.67098 21.10716 C 76.53099 20.96557 76.32613 21.30565 76.24548 21.39117 C 76.10051 21.54485 75.95556 21.6985 75.81063 21.852149999999998 C 75.38155 22.307039999999997 74.95245 22.761899999999997 74.52337 23.2168 C 74.11297 23.651889999999998 73.70254 24.08697 73.29214 24.52206 C 73.10885 24.71635 72.92559 24.91064 72.74229 25.10494 C 72.66619 25.18562 72.63851 25.30052 72.66942 25.40698 L 73.238 27.36376 C 73.238 27.36376 73.95152 30.119889999999998 74.21187 31.02078 C 74.31085 31.36338 74.48485000000001 31.634929999999997 74.81537 31.78757 C 75.1181 31.927419999999998 75.46916 31.94522 75.79132 31.86928 C 76.50725 31.7006 76.97816 31.09983 76.84315 30.5275 C 76.70808 29.95511 76.01818 29.62792 75.30225 29.79663 C 75.00307 29.86714 74.75088 30.01556 74.56361 30.20336 C 74.56361 30.20336 74.11752 28.23097 73.77839 26.73159 L 76.57819 23.4566 C 76.88289 24.56511 77.30690000000001 26.31922 77.57791 27.2571 C 77.67692000000001 27.59976 77.85092 27.87125 78.18144000000001 28.02392 C 78.48417 28.16374 78.83520000000001 28.18157 79.15737000000001 28.10566 C 79.87331 27.93695 80.34422 27.33621 80.20918 26.76385 z" stroke-linecap="round" />
</g>
		<g transform="matrix(1 0 0 1 -26.73480002171401 -24.414813120977264)" id="_x32__00000135658513592394138040000014247589658759772596_"  >
<path style="stroke: none; stroke-width: 1; stroke-dasharray: none; stroke-linecap: butt; stroke-dashoffset: 0; stroke-linejoin: miter; stroke-miterlimit: 4; fill: rgb(127,15,14); fill-rule: nonzero; opacity: 1;"  paint-order="stroke"  transform=" translate(-23.265199186656965, -25.585186879022736)" d="M 19.50065 25.85563 C 19.63572 25.28327 20.3256 24.95608 21.04153 25.12479 C 21.340760000000003 25.1953 21.5929 25.34372 21.780170000000002 25.5315 C 21.780170000000002 25.5315 22.94087 20.39956 22.94093 20.39939 C 22.96656 20.33254 22.987000000000002 20.2514 23.038860000000003 20.19895 C 23.178850000000004 20.05736 23.383710000000004 20.39744 23.464360000000003 20.48296 C 23.609330000000003 20.63664 23.75427 20.79029 23.899210000000004 20.943939999999998 C 24.328290000000003 21.398829999999997 24.757390000000004 21.853689999999997 25.186470000000003 22.30859 C 25.596870000000003 22.743679999999998 26.007300000000004 23.17876 26.417700000000004 23.61385 C 26.600990000000003 23.808139999999998 26.784260000000003 24.00244 26.967550000000003 24.19673 C 27.043650000000003 24.27741 27.071340000000003 24.39231 27.040420000000005 24.49877 L 26.471840000000004 26.455560000000002 C 26.471840000000004 26.455560000000002 25.758310000000005 29.21169 25.497970000000002 30.11258 C 25.39899 30.455180000000002 25.224990000000002 30.72673 24.894470000000002 30.87937 C 24.59175 31.01922 24.24069 31.037020000000002 23.91852 30.961080000000003 C 23.20259 30.792400000000004 22.73167 30.191630000000004 22.866690000000002 29.619300000000003 C 23.00176 29.046910000000004 23.691670000000002 28.719720000000002 24.407590000000003 28.888430000000003 C 24.706770000000002 28.958940000000002 24.95896 29.107360000000003 25.146230000000003 29.295160000000003 C 25.146230000000003 29.295160000000003 25.592320000000004 27.322770000000002 25.93145 25.823390000000003 L 23.131660000000004 22.548400000000004 C 22.826960000000003 23.656910000000003 22.402950000000004 25.411020000000004 22.131940000000004 26.348900000000004 C 22.032930000000004 26.691560000000003 21.858930000000004 26.963040000000003 21.528410000000004 27.115720000000003 C 21.225690000000004 27.255540000000003 20.874660000000006 27.273370000000003 20.552480000000003 27.197460000000003 C 19.83652 27.02873 19.3656 26.42799 19.50065 25.85563 z" stroke-linecap="round" />
</g>
		<g transform="matrix(1 0 0 1 -7.10543e-15 15.790144999999995)" id="_x33__00000004519658913663431310000004500305932109804732_"  >
<path style="stroke: none; stroke-width: 1; stroke-dasharray: none; stroke-linecap: butt; stroke-dashoffset: 0; stroke-linejoin: miter; stroke-miterlimit: 4; fill: rgb(127,15,14); fill-rule: nonzero; opacity: 1;"  paint-order="stroke"  transform=" translate(-49.999999208370966, -65.790145)" d="M 98.44888 73.8364 C 97.69404 71.50721 95.54875 69.93235 93.08564 69.93235 L 88.35803 69.93235 C 88.09316 58.76287 85.53735 50.227019999999996 80.53161 44.21873 C 81.37915 42.98798 80.83624 40.65879 78.99551 38.95163 C 75.64509 35.85484 71.92393 33.39334 67.96441 31.58029 C 67.5539 32.55959 67.13012 33.52565 66.70635 34.49178 C 66.60047 34.72998 66.50776 34.96819 66.4018 35.20639 C 66.26941 35.51075 66.13692999999999 35.80193 66.00453999999999 36.10629 C 65.97802999999999 36.18569 65.95151999999999 36.251850000000005 65.91184 36.33133 C 65.71316 36.79449 65.51458 37.27089 65.30265 37.73413 C 65.96478 38.05173 66.60048 38.38258 67.2361 38.75309 C 69.60649 40.06324 71.81805999999999 41.66458 73.83088 43.54379 C 74.32085 43.98053 74.85059 44.139340000000004 75.15513999999999 44.139340000000004 C 75.20815999999999 44.139340000000004 75.24784999999999 44.126090000000005 75.26109999999998 44.126090000000005 C 75.27434999999998 44.126090000000005 75.28760999999999 44.126090000000005 75.28760999999999 44.139340000000004 C 75.34055 44.11285 75.69811999999999 43.92763000000001 76.14832999999999 43.702600000000004 C 76.18808999999999 43.676190000000005 76.22777999999998 43.662940000000006 76.26754999999999 43.63645 C 76.82371999999998 43.34534 77.49909999999998 43.01449 77.90961999999999 42.84244 C 78.12146999999999 42.749790000000004 78.26719999999999 42.71005 78.26719999999999 42.749790000000004 L 78.02883999999999 42.9615 L 76.74425999999998 44.0467 L 76.55883999999999 44.2055 L 74.13550999999998 46.27 C 74.13550999999998 46.27 74.12225999999998 46.27 74.10899999999998 46.27 L 74.00303999999998 46.27 C 73.96335999999998 46.27 73.92358999999999 46.27 73.87064999999998 46.256840000000004 C 73.57927999999998 46.23035 73.14232999999999 46.071540000000006 72.74498999999999 45.700950000000006 C 71.64590999999999 44.69516000000001 70.49381999999999 43.755590000000005 69.28868999999999 42.921850000000006 C 63.68709999999999 38.96490000000001 56.98635999999999 36.821000000000005 50.00748999999999 36.821000000000005 C 43.01544999999999 36.821000000000005 36.30144999999999 38.96490000000001 30.68660999999999 42.93509 C 29.48148999999999 43.768840000000004 28.342649999999992 44.695150000000005 27.24348999999999 45.71419 C 26.85947999999999 46.07154 26.42245999999999 46.230340000000005 26.13115999999999 46.25683 C 26.07813999999999 46.26999 26.03844999999999 46.26999 25.99868999999999 46.26999 C 25.90597999999999 46.26999 25.85303999999999 46.25683 25.83977999999999 46.25683 L 23.44287999999999 44.2055 L 23.244209999999992 44.0467 L 21.972969999999993 42.9615 L 21.734609999999993 42.749790000000004 C 21.734609999999993 42.71005 21.880259999999993 42.749790000000004 22.092109999999995 42.84244 C 22.502629999999996 43.00124 23.178009999999993 43.34534 23.747429999999994 43.623200000000004 C 23.787199999999995 43.64969000000001 23.826879999999996 43.676190000000005 23.866649999999993 43.68943 C 24.330109999999994 43.92763 24.687679999999993 44.11285 24.687679999999993 44.11285 C 24.687679999999993 44.11285 24.75387999999999 44.139340000000004 24.846589999999992 44.139340000000004 C 25.15113999999999 44.139340000000004 25.68087999999999 43.980540000000005 26.157589999999992 43.54379 C 28.183739999999993 41.67783 30.39522999999999 40.07649 32.765629999999994 38.75309 C 33.401329999999994 38.38258 34.03695 38.05173 34.69906999999999 37.73413 C 34.48721999999999 37.27089 34.28855999999999 36.79449 34.089879999999994 36.33133 C 34.0502 36.251850000000005 34.02367999999999 36.185700000000004 33.99726 36.10629 L 33.99726 36.09305 C 33.85153 35.788689999999995 33.719139999999996 35.49758 33.59992 35.193149999999996 C 33.49404 34.95495 33.401329999999994 34.729989999999994 33.29537 34.491789999999995 C 32.8716 33.525659999999995 32.44782 32.559599999999996 32.03731 31.580299999999994 C 28.077789999999997 33.39334999999999 24.35663 35.85484999999999 21.006209999999996 38.95164 C 19.165549999999996 40.658789999999996 18.622559999999996 42.987989999999996 19.470109999999995 44.21874 C 14.451199999999995 50.227019999999996 11.908569999999994 58.76286999999999 11.643779999999996 69.93235999999999 L 6.91613 69.93235999999999 C 4.4529499999999995 69.93235999999999 2.29448 71.50720999999999 1.5529000000000002 73.82314999999998 C -0.4997699999999998 80.20193999999998 -0.51302 86.56747999999999 1.4866200000000003 92.74772999999999 C 2.25471 95.10341 4.42652 96.67826 6.87636 96.67826 L 17.81475 96.67826 L 17.81475 96.71791999999999 C 17.81475 98.53105 19.28466 99.99999999999999 21.09889 99.99999999999999 L 22.489430000000002 99.99999999999999 C 23.52231 99.99999999999999 24.118240000000004 99.55000999999999 24.449310000000004 99.16624999999999 C 25.336540000000003 98.10754999999999 25.177640000000004 96.44004999999999 24.978970000000004 95.27546 C 24.899520000000003 94.83872 24.833320000000004 94.38879999999999 24.753870000000003 93.95206999999999 C 24.621480000000002 93.10507 24.502260000000003 92.24490999999999 24.396380000000004 91.39792 C 24.197710000000004 89.70394 24.038800000000005 88.03644 23.946100000000005 86.42193 C 23.707740000000005 82.46498 23.826880000000006 78.64034000000001 24.290420000000005 75.09364000000001 C 24.409560000000006 74.19374 24.542030000000004 73.307 24.700940000000003 72.43360000000001 C 24.753880000000002 72.15566000000001 24.820080000000004 71.89104000000002 24.886360000000003 71.61310000000002 C 25.005500000000005 71.14994000000002 25.111460000000005 70.67346000000002 25.164400000000004 70.21031000000002 C 25.283620000000003 69.15160000000002 24.992240000000002 68.11931000000003 24.396390000000004 67.44437000000002 C 23.906340000000004 66.90181000000003 23.244210000000002 66.61062000000003 22.489450000000005 66.61062000000003 L 21.098910000000004 66.61062000000003 C 19.946810000000003 66.61062000000003 18.927190000000003 67.21941000000002 18.344510000000003 68.11931000000003 C 18.741770000000002 59.90106000000003 20.966520000000003 53.44287000000003 24.992230000000003 48.75799000000003 C 26.263550000000002 49.19473000000003 27.8791 48.73158000000003 29.04446 47.64638000000003 C 34.10314 42.96150000000003 40.366929999999996 40.28829000000003 46.816069999999996 39.63983000000003 C 47.848949999999995 39.573600000000035 48.908339999999995 39.54718000000003 49.99424 39.54718000000003 C 51.093399999999995 39.54718000000003 52.16605 39.57359000000003 53.21218 39.63983000000003 C 59.634879999999995 40.301530000000035 65.8986 42.97474000000003 70.95727 47.646380000000036 C 72.12262 48.73157000000003 73.73818 49.194730000000035 75.00949999999999 48.757990000000035 C 79.03520999999999 53.442870000000035 81.24677999999999 59.90106000000004 81.64403999999999 68.11931000000004 C 81.06136 67.21941000000004 80.05490999999999 66.61062000000004 78.88955999999999 66.61062000000004 L 77.49909999999998 66.61062000000004 C 76.74425999999998 66.61062000000004 76.08213999999998 66.90181000000004 75.59215999999998 67.44437000000003 C 74.99622999999998 68.11931000000004 74.71818999999998 69.15160000000003 74.83731999999998 70.21031000000004 C 74.89025999999998 70.67347000000004 74.99622999999998 71.14995000000003 75.10218999999998 71.61310000000003 C 75.16838999999997 71.89105000000004 75.23457999999998 72.15566000000003 75.28760999999997 72.42036000000003 C 75.44651999999998 73.30701000000003 75.59215999999998 74.19374000000003 75.69811999999997 75.09365000000003 C 76.16157999999997 78.65359000000002 76.28079999999997 82.46499000000003 76.05561999999998 86.42194000000002 C 75.96290999999998 88.03645000000002 75.80399999999997 89.70395000000002 75.59215999999998 91.39793000000002 C 75.48619999999998 92.24492000000002 75.36705999999998 93.10508000000002 75.23458999999998 93.95208000000002 C 75.16839999999998 94.38882000000002 75.08893999999998 94.83873000000003 75.02273999999998 95.27547000000003 C 74.82406999999998 96.44007000000002 74.66516999999999 98.10756000000002 75.55239999999999 99.16626000000002 C 75.87028 99.55001 76.47939 100 77.49909 100 L 78.88955 100 C 80.70377 100 82.17368 98.53104 82.17368 96.71792 L 82.17368 96.67826000000001 L 93.12532 96.67826000000001 C 95.57525 96.67826000000001 97.73371 95.10341000000001 98.50181 92.74773 C 100.51471 86.56747 100.50146 80.20193 98.44888 73.8364 z" stroke-linecap="round" />
</g>
		<g transform="matrix(1 0 0 1 -0.0007692083709756048 22.737989999999996)" id="_x34__00000098199440653545389560000011562252688413262998_"  >
<path style="stroke: none; stroke-width: 1; stroke-dasharray: none; stroke-linecap: butt; stroke-dashoffset: 0; stroke-linejoin: miter; stroke-miterlimit: 4; fill: rgb(165,89,88); fill-rule: nonzero; opacity: 1;"  paint-order="stroke"  transform=" translate(-49.99923, -72.73799)" d="M 17.32478 65.86951 C 17.32478 57.862970000000004 18.90065 51.39153 21.93317 46.40238000000001 C 22.67475 47.037580000000005 23.416330000000002 47.672790000000006 24.15791 48.30808000000001 C 19.66873 53.60167000000001 17.32477 61.09207000000001 17.32477 70.87200000000001 L 17.32477 65.86951 z M 82.67691 70.87199 L 82.67691 65.8695 C 82.67691 57.86296 81.10104000000001 51.39152 78.06851 46.402370000000005 C 77.32693 47.03757 76.58535 47.67278 75.84377 48.30807000000001 C 80.34628 53.60167 82.67691 61.09206 82.67691 70.87199 z M 21.09889 99.07361 L 22.489430000000002 99.07361 C 23.46937 99.07361 23.919570000000004 98.53105000000001 24.091730000000002 97.81636 L 24.091730000000002 97.80312 C 24.137400000000003 97.62808000000001 24.162290000000002 97.44343 24.177970000000002 97.25588 C 24.1614 97.4503 24.133920000000003 97.6406 24.087770000000003 97.81936 C 24.08066 97.77219000000001 24.074600000000004 97.71944 24.06724 97.67413 C 23.974290000000003 97.22826 23.91844 96.78238 23.844160000000002 96.33651 C 23.715080000000004 95.48855 23.586240000000004 94.62265000000001 23.475270000000002 93.77437 C 23.473090000000003 93.77574 23.47155 93.77865 23.46937 93.78002000000001 C 23.23101 93.97856 22.913120000000003 94.08437 22.489430000000002 94.08437 L 21.09889 94.08437 C 19.80114 94.08437 18.74175 93.02567 18.74175 91.72876000000001 L 18.74175 96.71792 C 18.74175 98.0149 19.80114 99.07361 21.09889 99.07361 z M 12.54423 95.75186 L 17.32478 95.75186 L 17.32478 90.74946 L 12.54423 90.74946 L 12.54423 95.75186 z M 0.9834 84.38392 C 1.04968 87.05713 1.49988 89.74367000000001 2.37394 92.45661 C 3.00956 94.41521 4.823790000000001 95.75186 6.8763700000000005 95.75186 L 11.21998 95.75186 L 11.21998 90.74946 L 6.87637 90.74946 C 4.82379 90.74946 3.0095599999999996 89.41281 2.3739399999999993 87.46738 C 1.7944999999999993 85.66451 1.3998199999999992 83.88781 1.1740699999999993 82.11119000000001 C 1.0845999999999993 82.84712 1.0186399999999993 83.58402000000001 0.9833999999999993 84.32197000000001 L 0.9833999999999993 84.38392 z M 82.67691 95.75186 L 87.45754000000001 95.75186 L 87.45754000000001 90.74946 L 82.67691 90.74946 L 82.67691 95.75186 z M 97.61459 87.46738 C 96.97897 89.41281000000001 95.17791000000001 90.74946 93.12533 90.74946 L 88.7818 90.74946 L 88.7818 95.75186 L 93.12533 95.75186 C 95.17791000000001 95.75186 96.97897 94.41520999999999 97.61459 92.45661 C 98.50901 89.72242 98.94442000000001 87.04048999999999 99.01506 84.34595 C 98.97901 83.58361000000001 98.90845 82.82247 98.81388000000001 82.06231 C 98.60107 83.85098 98.20679 85.65255 97.61459 87.46738 z M 78.88955 94.08437 L 77.49909 94.08437 C 77.07596 94.08437 76.74555 93.96539000000001 76.50726999999999 93.78074000000001 C 76.41448 94.62692000000001 76.28644999999999 95.49064000000001 76.15769999999999 96.33650000000002 C 76.08333999999999 96.78237000000001 76.00905999999999 97.22825000000002 75.93462 97.67412000000002 C 75.9263 97.72533000000001 75.91942999999999 97.78486000000002 75.91127 97.83841000000001 C 75.91062000000001 97.83583000000002 75.91062000000001 97.83292000000002 75.90997 97.83034 C 75.90997 97.83349000000001 75.90997 97.83663000000001 75.90997 97.84286 C 76.09539 98.54421 76.54559 99.07361 77.4991 99.07361 L 78.88956 99.07361 C 80.20056 99.07361 81.24678 98.0149 81.24678 96.71792 L 81.24678 91.72876000000001 C 81.24677 93.02567 80.20055 94.08437 78.88955 94.08437 z" stroke-linecap="round" />
</g>
		<g transform="matrix(1 0 0 1 -0.0020554970795529925 21.372665000000012)" id="_x35__00000069399049430758570480000005091841210604243331_"  >
<linearGradient id="SVGID_6_6_473689" gradientUnits="userSpaceOnUse" gradientTransform="matrix(1 0 0 1 0.9620767835253403 44.906920000000014)"  x1="0" y1="0" x2="0" y2="53">
<stop offset="0%" style="stop-color:rgb(252,227,138);stop-opacity: 1"/>
<stop offset="100%" style="stop-color:rgb(243,129,129);stop-opacity: 1"/>
</linearGradient>
<path style="stroke: none; stroke-width: 1; stroke-dasharray: none; stroke-linecap: butt; stroke-dashoffset: 0; stroke-linejoin: miter; stroke-miterlimit: 4; fill: url(#SVGID_6_6_473689); fill-rule: nonzero; opacity: 1;"  paint-order="stroke"  transform=" translate(-49.99794371129142, -71.37266500000001)" d="M 23.84415 96.3365 C 23.71507 95.48854 23.58623 94.62264 23.47526 93.77436 C 23.47437 93.76765 23.473239999999997 93.76079 23.47235 93.75408 C 23.26786 92.08207 23.119059999999998 90.40996 23.00752 88.71945 C 22.91473 87.12781 22.89113 85.52985 22.91303 83.93231 C 22.93065 84.78116 22.958209999999998 85.62977000000001 23.00752 86.47604 C 23.11906 88.16663 23.26786 89.83873 23.47235 91.51075 C 23.558429999999998 92.17019 23.65954 92.83892 23.7592 93.50344 C 23.7668 93.55385 23.77343 93.60416 23.78102 93.65449 C 23.803 93.80053 23.822000000000003 93.94794999999999 23.844150000000003 94.09317 C 23.918430000000004 94.53905 23.974280000000004 94.98483 24.067230000000002 95.43071 C 24.09916 95.62739 24.12777 95.8437 24.151370000000004 96.06721 C 24.158000000000005 96.13061 24.160830000000004 96.19653000000001 24.166240000000002 96.26107 C 24.178770000000004 96.41212 24.188060000000004 96.56203000000001 24.19105 96.7159 C 24.1938 96.85483 24.1917 96.99311 24.18386 97.13027000000001 C 24.18152 97.17228000000001 24.18152 97.21428000000002 24.17796 97.25588 C 24.161389999999997 97.4503 24.13391 97.6406 24.08776 97.81936 C 24.08065 97.77219000000001 24.07459 97.71944 24.06723 97.67413 C 23.97429 97.22825 23.91843 96.78237 23.84415 96.3365 z M 2.42785 74.12136 C 1.6882899999999998 76.43109 1.24843 78.75309999999999 1.06205 81.08487 C 0.99262 81.95375999999999 0.9622299999999999 82.82401 0.97064 83.69588999999999 C 0.97339 83.98449 0.95439 84.27229 0.96571 84.56129999999999 C 0.9688599999999999 84.48141999999999 0.97961 84.40184999999998 0.98341 84.32197 C 1.01865 83.58402 1.0846 82.84711999999999 1.17408 82.11119 C 1.40791 80.18836999999999 1.81697 78.27241 2.42786 76.3647 C 3.06 74.41402 4.88183 73.11355999999999 6.9081399999999995 73.11355999999999 L 9.848279999999999 73.11355999999999 L 11.221119999999999 84.33175 L 11.221119999999999 73.11355 L 11.221119999999999 70.87013 L 6.90813 70.87013 C 4.88181 70.87013 3.05999 72.17068 2.42785 74.12136 z M 99.02694 83.858 C 99.03397 83.40098 99.03365 82.94412 99.0191 82.48791 C 99.01755999999999 82.44042 99.02006999999999 82.39268 99.01829 82.34518 C 99.00292999999999 81.92928 98.96849999999999 81.51418 98.93527999999999 81.099 C 98.74808999999999 78.76246 98.30354 76.43585 97.55533 74.12135 C 96.94194 72.17067 95.12003 70.87012 93.07513 70.87012 L 88.78067 70.87012 L 88.78067 73.11354 L 88.78067 84.33173 L 90.30926 73.11354 L 93.07513999999999 73.11354 C 95.12004999999999 73.11354 96.94194999999999 74.414 97.55533999999999 76.36468 C 98.16686999999999 78.25624 98.57681999999998 80.15596000000001 98.81387999999998 82.06230000000001 C 98.90844999999999 82.82246 98.97900999999999 83.58359 99.01505999999998 84.34594000000001 C 99.01845999999998 84.41718000000002 99.02814999999998 84.48810000000002 99.03097999999997 84.55934 C 99.04028 84.3252 99.02338 84.092 99.02694 83.858 z M 17.45718 48.85063 C 16.914270000000002 49.79027 16.424300000000002 50.78282 15.98727 51.78862 C 15.55024 52.80758 15.16624 53.853120000000004 14.82192 54.92506 C 14.64976 55.454370000000004 14.49086 55.99701 14.33195 56.55281 C 14.225990000000001 56.96306 14.1201 57.38656 14.014140000000001 57.810050000000004 C 13.70959 59.0673 13.471230000000002 60.364200000000004 13.259300000000001 61.6876 C 13.166590000000001 62.26990000000001 13.087140000000002 62.86545 13.020940000000001 63.46099 C 12.875290000000001 64.66525 12.769330000000002 65.88275 12.68988 67.11351 C 12.610430000000001 68.35751 12.57066 69.6015 12.557490000000001 70.87199000000001 L 12.54423 70.87199000000001 L 12.54423 73.10854 L 12.557490000000001 73.10854 C 12.689880000000002 62.34930000000001 14.861690000000001 52.62236 21.31082 45.872980000000005 C 20.939989999999998 45.54213000000001 20.555979999999998 45.22453000000001 20.18515 44.90693 C 19.84091 45.30393 19.53628 45.70094 19.23172 46.11119 C 18.58285 46.98467 17.98691 47.89782 17.45718 48.85063 z M 87.44429 73.10854 L 87.45754 73.10854 L 87.45754 70.87199000000001 L 87.44429 70.87199000000001 C 87.32507 60.77446000000001 85.40487999999999 51.57682000000001 79.81653999999999 44.906920000000014 C 79.44570999999999 45.22452000000001 79.06169999999999 45.54212000000001 78.69094999999999 45.87297000000002 C 85.14009 52.62236 87.31181 62.34931 87.44429 73.10854 z M 78.89052 67.54459 C 78.89052 67.54459 77.51486 67.54459 77.49625999999999 67.54459 C 76.13919 67.54459 75.61859 68.93802 75.74871999999999 70.10836 C 75.78564999999999 70.39591 75.85088999999999 70.67975 75.91474 70.96375 C 76.16449999999999 70.30132 76.67491 69.78801 77.49627 69.78801 C 77.51486 69.78801 78.89053 69.78801 78.89053 69.78801 C 80.19191 69.78801 81.25162999999999 70.84687 81.25162999999999 72.14742 L 81.25162999999999 69.904 C 81.25162 68.60354 80.1919 67.54459 78.89052 67.54459 z M 75.93462 97.67412 C 76.00905999999999 97.22825 76.08333999999999 96.78237 76.15769999999999 96.3365 C 76.28644999999999 95.49064 76.41448 94.62692 76.50726999999999 93.78074 C 76.50823999999999 93.77194 76.50993999999999 93.76289 76.51091 93.75407999999999 C 76.71548 92.08206999999999 76.88270999999999 90.40995999999998 76.97565999999999 88.71945 C 77.06981999999999 87.10284 77.09705999999998 85.47977 77.07539999999999 83.85695 C 77.05704999999999 84.73116 77.02649999999998 85.60473999999999 76.97565999999999 86.47604 C 76.88270999999999 88.16663 76.71547999999999 89.83873 76.51091 91.51075 C 76.41796 92.36534 76.28783 93.2385 76.15769999999999 94.09317 C 76.08333999999999 94.53905 76.00905999999999 94.98483 75.93462 95.43071 C 75.90068 95.63999000000001 75.87077 95.87197 75.8462 96.1109 C 75.81201 96.44305 75.79648999999999 96.78957 75.81428 97.12857 C 75.81751 97.19044 75.82106999999999 97.25086 75.82681 97.31177 C 75.83869 97.43768999999999 75.86133 97.55821 75.88548999999999 97.67792 C 75.89551999999999 97.72776 75.89753999999999 97.78203 75.90997999999999 97.83034 C 75.91062999999998 97.83292 75.91062999999998 97.83583 75.91127999999999 97.83841000000001 C 75.91943 97.78486 75.92629 97.72533 75.93462 97.67412 z M 21.11126 69.78801 L 22.487 69.78801 C 23.31983 69.78801 23.82791 70.30149 24.073939999999997 70.9644 C 24.13884 70.68008 24.204959999999996 70.39616 24.23446 70.10836 C 24.36459 68.93803 23.862659999999998 67.54459 22.48699 67.54459 L 21.11125 67.54459 C 19.791439999999998 67.54459 18.75023 68.60353 18.75023 69.904 L 18.75023 72.14742 C 18.75024 70.84687 19.79144 69.78801 21.11126 69.78801 z" stroke-linecap="round" />
</g>
		<g transform="matrix(1 0 0 1 0.748010791629035 -31.269075)" id="_x36__00000062900564870542700520000000039196110594177174_"  >
<path style="stroke: none; stroke-width: 1; stroke-dasharray: none; stroke-linecap: butt; stroke-dashoffset: 0; stroke-linejoin: miter; stroke-miterlimit: 4; fill: rgb(127,15,14); fill-rule: nonzero; opacity: 1;"  paint-order="stroke"  transform=" translate(-50.74801000000001, -18.730925)" d="M 35.4433 37.46185 C 35.06172 36.52794 34.68006 35.59404 34.29839 34.660129999999995 C 36.41717 33.795359999999995 38.58962 33.11266 40.79327 32.61194999999999 C 41.01708 33.595699999999994 41.2408 34.579359999999994 41.46461 35.563019999999995 C 39.42165 36.02714 37.40762 36.66008 35.4433 37.46185 z M 40.58854 31.71196 C 40.36473 30.7283 40.14092 29.74463 39.917120000000004 28.76097 C 37.503890000000006 29.309260000000002 35.124610000000004 30.05699 32.80424000000001 31.00406 C 33.185900000000004 31.93797 33.56756000000001 32.87187 33.94923000000001 33.8057 C 36.11504 32.92171 38.33591 32.22374 40.58854 31.71196 z M 31.31016 27.34783 C 31.69174 28.28174 32.073479999999996 29.215649999999997 32.45506 30.149549999999998 C 34.82255000000001 29.183329999999998 37.250080000000004 28.420419999999996 39.71238 27.860989999999997 C 39.48865 26.877249999999997 39.26476 25.893659999999997 39.04104 24.909919999999996 C 36.41806 25.50578 33.83211 26.31853 31.31016 27.34783 z M 30.96099 26.49341 C 33.52997 25.44481 36.16427 24.61695 38.83622 24.00994 C 38.6125 23.02628 38.38869 22.04261 38.16488 21.05887 C 35.33224 21.702389999999998 32.53953 22.58008 29.815999999999995 23.691689999999998 C 30.19767 24.62559 30.57933 25.5595 30.96099 26.49341 z M 29.46684 22.83726 C 32.23749 21.70643 35.078450000000004 20.81355 37.96015 20.15888 C 37.73634 19.17522 37.51253 18.19147 37.28873 17.20781 C 34.246430000000004 17.89907 31.247040000000002 18.84162 28.32194 20.035539999999997 C 28.70351 20.96945 29.08518 21.90335 29.46684 22.83726 z M 43.00193 35.24654 C 45.05807 34.86674 47.137730000000005 34.65576 49.21998 34.613600000000005 C 49.19953 33.60490000000001 49.179 32.59644000000001 49.15855 31.587890000000005 C 46.912549999999996 31.633370000000006 44.669219999999996 31.860990000000005 42.451499999999996 32.270590000000006 C 42.63498 33.26258 42.81846 34.25456 43.00193 35.24654 z M 42.28363 31.36302 C 44.55073 30.94429 46.84385 30.71166 49.1398 30.665129999999998 C 49.119350000000004 29.656509999999997 49.0989 28.648049999999998 49.078450000000004 27.639419999999998 C 46.61858 27.689259999999997 44.16187000000001 27.938529999999997 41.73311 28.38714 C 41.9166 29.37905 42.10015 30.37103 42.28363 31.36302 z M 41.56525 27.47949 C 44.04338 27.021739999999998 46.54997 26.76747 49.059709999999995 26.716659999999997 C 49.03926 25.708039999999997 49.01873 24.699419999999996 48.998279999999994 23.690869999999997 C 46.32478999999999 23.74507 43.65460999999999 24.016069999999996 41.01481999999999 24.503539999999997 C 41.19829 25.49561 41.38177 26.48751 41.56525 27.47949 z M 40.84694 23.59597 C 43.53603 23.099210000000003 46.25608 22.82337 48.979519999999994 22.76812 C 48.95907 21.7595 48.938539999999996 20.75104 48.91808999999999 19.74241 C 46.03088999999999 19.80089 43.14732999999999 20.09353 40.29641999999999 20.6201 C 40.47999 21.612 40.66347 22.60399 40.84694 23.59597 z M 48.81924 14.87119 C 48.798790000000004 13.86265 48.77826 12.85411 48.75781 11.84548 C 45.44312 11.9126 42.13264 12.24854 38.85974 12.85305 C 39.0433 13.84503 39.226690000000005 14.837019999999999 39.410250000000005 15.829 C 42.52142 15.2543 45.66839 14.935 48.81924 14.87119 z M 57.55043 32.27059 C 55.33263 31.860989999999997 53.08938 31.63345 50.8433 31.587889999999998 C 50.82285 32.596509999999995 50.80232 33.604969999999994 50.78187 34.6136 C 52.8642 34.65584 54.94386 34.86683 56.999919999999996 35.246539999999996 C 57.1834 34.25456 57.36687 33.26258 57.55043 32.27059 z M 58.26873 28.38715 C 55.8399 27.93853 53.38326 27.689339999999998 50.923469999999995 27.639429999999997 C 50.902939999999994 28.648049999999998 50.88249 29.656509999999997 50.86203999999999 30.665139999999997 C 53.15807999999999 30.711669999999998 55.45119999999999 30.94429 57.718289999999996 31.36303 C 57.90178 30.37111 58.08526 29.37913 58.26873 28.38715 z M 58.98712 24.50354 C 56.347249999999995 24.015990000000002 53.67715 23.745160000000002 51.00358 23.69087 C 50.98313 24.69941 50.96268 25.70803 50.94215 26.71666 C 53.45189 26.76747 55.95847 27.02174 58.43661 27.479490000000002 C 58.62008 26.48751 58.80364 25.49561 58.98712 24.50354 z M 59.70542 20.6201 C 56.854589999999995 20.09354 53.97103 19.80097 51.083749999999995 19.74241 C 51.0633 20.75103 51.04277 21.75949 51.02231999999999 22.76812 C 53.74576999999999 22.82337 56.46580999999999 23.09929 59.154979999999995 23.59597 C 59.33847 22.60407 59.52195 21.61208 59.70542 20.6201 z M 60.42373 16.7365 C 57.361869999999996 16.17092 54.26484 15.85679 51.16394 15.793949999999999 C 51.14349 16.80241 51.12296 17.81111 51.102509999999995 18.81966 C 54.03966 18.879189999999998 56.973169999999996 19.17684 59.87329999999999 19.71245 C 60.05677 18.72046 60.24025 17.72856 60.42373 16.7365 z M 61.14211 12.85305 C 57.869130000000006 12.24846 54.55872 11.91268 51.24404 11.84548 C 51.22359 12.85402 51.20314 13.86264 51.18261 14.87119 C 54.333459999999995 14.935080000000001 57.48043 15.254380000000001 60.5916 15.82901 C 60.77516 14.83702 60.95855 13.84504 61.14211 12.85305 z M 58.53724 35.56301 C 60.5802 36.027139999999996 62.594319999999996 36.66008 64.55856 37.461839999999995 C 64.94022 36.52793 65.32188 35.59403 65.70347 34.66011999999999 C 63.58477 33.79534999999999 61.412319999999994 33.112649999999995 59.208589999999994 32.61193999999999 C 58.98477 33.59561 58.76105 34.57927 58.53724 35.56301 z M 67.19762 31.00406 C 64.87725 30.05699 62.49805 29.30926 60.084740000000004 28.76097 C 59.86093 29.74463 59.63720000000001 30.7283 59.4134 31.71196 C 61.666030000000006 32.22374 63.88682 32.921710000000004 66.05272000000001 33.8057 C 66.4343 32.87187 66.81596 31.93797 67.19762 31.00406 z M 68.69169 27.34783 C 66.16975 26.31853 63.58386999999999 25.505779999999998 60.960899999999995 24.90992 C 60.737089999999995 25.89366 60.5132 26.87725 60.28948 27.86099 C 62.75178 28.42043 65.17932 29.18334 67.54679 30.14955 C 67.92837 29.21573 68.31011 28.28182 68.69169 27.34783 z M 70.18584 23.69169 C 67.46232 22.580080000000002 64.66969 21.70239 61.83697 21.058870000000002 C 61.61324 22.042610000000003 61.38944 23.026280000000003 61.16563 24.009940000000004 C 63.83759 24.617040000000003 66.47188 25.444890000000004 69.04094 26.493410000000004 C 69.42252 25.5595 69.80418 24.62559 70.18584 23.69169 z M 71.67992 20.03554 C 68.75473 18.841620000000002 65.75542999999999 17.899070000000002 62.71312999999999 17.207810000000002 C 62.48931999999999 18.191470000000002 62.26550999999999 19.175220000000003 62.041709999999995 20.158880000000003 C 64.92340999999999 20.813550000000003 67.76437999999999 21.706430000000005 70.53501999999999 22.837260000000004 C 70.9166 21.90335 71.29834 20.96945 71.67992 20.03554 z M 72.02909 19.18111 C 72.41075 18.2472 72.79240999999999 17.3133 73.17408 16.37939 C 70.04731000000001 15.103250000000001 66.84126 14.09567 63.58921 13.35683 C 63.36548 14.34049 63.141670000000005 15.324160000000001 62.91787 16.3079 C 66.00915 17.01024 69.05686 17.96797 72.02909 19.18111 z M 36.20792 12.45678 C 35.98411 11.47312 35.7603 10.48945 35.536500000000004 9.505790000000001 C 32.074870000000004 10.292200000000001 28.662060000000004 11.3648 25.333710000000004 12.72325 C 25.715370000000004 13.657160000000001 26.097030000000004 14.59106 26.478620000000003 15.52497 C 29.6525 14.22944 32.90689 13.20676 36.20792 12.45678 z M 61.86041 8.96953 C 58.37655 8.32609 54.85261 7.968580000000001 51.32421 7.897010000000001 C 51.303760000000004 8.90563 51.28323 9.914090000000002 51.26278 10.922720000000002 C 54.62734 10.990890000000002 57.98777 11.331920000000002 61.309979999999996 11.945400000000001 C 61.49346 10.95341 61.67694 9.96143 61.86041 8.96953 z M 63.2971 1.20248 C 59.39117 0.48101 55.44038 0.08021 51.48449 0 C 51.464040000000004 1.00854 51.44359 2.01716 51.42306 3.02579 C 55.21511 3.1026100000000003 59.00239 3.4867700000000004 62.74667 4.1784300000000005 C 62.93015 3.18645 63.11362 2.19454 63.2971 1.20248 z M 76.16231 9.0671 C 72.63238000000001 7.62634 69.0129 6.48888 65.34144 5.65473 C 65.11772 6.63847 64.89391 7.62214 64.6701 8.6058 C 68.18079 9.403360000000001 71.64193 10.491060000000001 75.01732000000001 11.86882 C 75.39898 10.93492 75.78065 10.00101 76.16231 9.0671 z" stroke-linecap="round" />
</g>
</g>
</g>
</svg>